<svg width="99" height="103" viewBox="0 0 99 103" fill="none" xmlns="http://www.w3.org/2000/svg">
<path d="M54.4202 10.47C53.7133 10.4105 53.0915 10.2318 52.5546 9.9337C52.0177 9.63564 51.6076 9.22181 51.3243 8.6922C51.0511 8.15407 50.9466 7.50369 51.0108 6.74105L51.0354 6.44808L52.1933 6.54549L52.1687 6.83846C52.1006 7.6476 52.2869 8.27208 52.7276 8.7119C53.1691 9.14243 53.7618 9.38898 54.5058 9.45157C55.2685 9.51573 55.8642 9.39257 56.2931 9.0821C56.722 8.77162 56.9583 8.35597 57.0021 7.83514C57.0326 7.47242 56.9639 7.17628 56.7959 6.94673C56.6372 6.71795 56.4005 6.52477 56.086 6.36718C55.7722 6.20028 55.401 6.0473 54.9725 5.90822L54.2623 5.66584C53.7075 5.4693 53.2206 5.24569 52.8014 4.99501C52.3823 4.74433 52.0617 4.43636 51.8395 4.07112C51.6274 3.69736 51.5445 3.23612 51.5906 2.68739C51.6368 2.13866 51.8115 1.67568 52.1149 1.29845C52.4275 0.921998 52.8393 0.647552 53.3503 0.475107C53.8705 0.303446 54.4561 0.244998 55.1071 0.299766C55.7675 0.355316 56.3483 0.521254 56.8495 0.797581C57.3609 1.06539 57.7466 1.43502 58.0067 1.90648C58.2768 2.36942 58.3837 2.93571 58.3274 3.60535L58.2781 4.19128L57.1202 4.09387L57.1695 3.50794C57.2094 3.03361 57.1391 2.64369 56.9588 2.33816C56.7877 2.03342 56.5314 1.79642 56.1897 1.62718C55.8573 1.45873 55.4679 1.35572 55.0215 1.31817C54.3797 1.26418 53.8514 1.36492 53.4366 1.62037C53.0225 1.86653 52.7935 2.25002 52.7497 2.77084C52.7207 3.11496 52.781 3.40102 52.9304 3.62901C53.0798 3.85701 53.3021 4.05367 53.5973 4.21899C53.8932 4.37502 54.2508 4.52218 54.6701 4.66047L55.3802 4.90286C55.9374 5.07149 56.4302 5.28154 56.8586 5.53301C57.2971 5.77596 57.636 6.09013 57.8752 6.47554C58.1152 6.85165 58.2109 7.32802 58.1624 7.90465C58.1139 8.48128 57.9275 8.97138 57.6032 9.37495C57.2789 9.77851 56.8415 10.0789 56.291 10.2761C55.7506 10.4648 55.127 10.5294 54.4202 10.47ZM62.0203 11.9044C61.3816 11.728 60.8431 11.434 60.4048 11.0224C59.9781 10.6044 59.6871 10.098 59.5318 9.50316C59.3856 8.91084 59.4094 8.26382 59.6033 7.5621L59.6443 7.41366C59.8406 6.70295 60.1523 6.13545 60.5793 5.71117C61.0179 5.28039 61.5263 4.99963 62.1047 4.86891C62.6945 4.73167 63.3088 4.75127 63.9475 4.92772C64.5773 5.10167 65.0802 5.36649 65.4565 5.72217C65.8417 6.08033 66.1068 6.48763 66.2518 6.94406C66.4059 7.40297 66.458 7.86278 66.4082 8.32348L65.3095 8.25237C65.3539 7.91607 65.328 7.58937 65.2316 7.27226C65.1442 6.95763 64.9745 6.67835 64.7223 6.43441C64.4702 6.19046 64.1282 6.00885 63.6963 5.88956C63.2555 5.76779 62.8323 5.75741 62.4268 5.85841C62.0303 5.96189 61.6776 6.16948 61.3688 6.48118C61.069 6.79536 60.8483 7.20885 60.7066 7.72164L60.6731 7.84309C60.5314 8.35589 60.5086 8.82405 60.6046 9.24757C60.7097 9.67358 60.9058 10.0328 61.193 10.3251C61.4891 10.62 61.8576 10.8283 62.2985 10.95C62.9552 11.1315 63.5017 11.0984 63.938 10.851C64.3833 10.6061 64.716 10.2429 64.9362 9.76145L65.9254 10.2816C65.7071 10.6861 65.4141 11.0457 65.0464 11.3605C64.6786 11.6753 64.2375 11.8875 63.7231 11.9972C63.2177 12.1093 62.6501 12.0784 62.0203 11.9044ZM66.3574 13.0753L69.1249 6.8136L70.1109 7.24938L69.7713 8.01768L69.9506 8.09692C70.1823 7.87279 70.4417 7.74764 70.7288 7.72146C71.0159 7.69528 71.3472 7.76519 71.7228 7.9312L72.4655 8.25945L72.058 9.18142L71.2513 8.82487C70.7989 8.6249 70.3752 8.59072 69.9803 8.72231C69.5977 8.84914 69.2895 9.17719 69.0555 9.70647L67.369 13.5224L66.3574 13.0753ZM72.8052 16.8332C72.2215 16.4641 71.7821 16.015 71.4871 15.4862C71.2 14.9623 71.07 14.3996 71.0969 13.7983C71.1367 13.194 71.3487 12.5881 71.7328 11.9807L71.83 11.8269C72.2092 11.2274 72.6632 10.7801 73.1921 10.4852C73.7288 10.1951 74.2954 10.0676 74.8918 10.1024C75.4961 10.1422 76.0901 10.3467 76.6738 10.7158C77.2576 11.085 77.693 11.5315 77.9801 12.0554C78.2751 12.5842 78.4027 13.1508 78.3629 13.7551C78.3309 14.3644 78.1254 14.9688 77.7463 15.5683L77.649 15.7221C77.2649 16.3295 76.8045 16.7782 76.2677 17.0682C75.7438 17.3553 75.1797 17.479 74.5754 17.4392C73.979 17.4043 73.389 17.2024 72.8052 16.8332ZM73.3365 15.9931C73.9518 16.3822 74.5631 16.4982 75.1704 16.3412C75.7906 16.1812 76.3102 15.7699 76.7292 15.1073L76.7966 15.0008C77.2156 14.3382 77.362 13.6964 77.2356 13.0754C77.1222 12.4515 76.7578 11.945 76.1425 11.5559C75.5351 11.1718 74.9214 11.0597 74.3012 11.2197C73.686 11.3717 73.1689 11.7791 72.7498 12.4417L72.6825 12.5482C72.2635 13.2108 72.1146 13.8566 72.2359 14.4855C72.3623 15.1064 72.7291 15.609 73.3365 15.9931ZM76.86 19.3407L83.111 11.7932L83.9627 12.4987L77.7118 20.0462L76.86 19.3407ZM78.9136 21.1387L85.6375 14.0092L86.4421 14.7681L79.7182 21.8976L78.9136 21.1387ZM84.1835 27.784C83.846 27.3025 83.6499 26.7788 83.5953 26.2131C83.5406 25.6473 83.6481 25.0932 83.9176 24.551C84.1872 24.0087 84.6201 23.5286 85.2162 23.1107L85.3652 23.0063C85.9614 22.5884 86.5565 22.348 87.1505 22.2849C87.7522 22.2165 88.307 22.3006 88.8149 22.5373C89.3357 22.7763 89.7676 23.1404 90.1105 23.6295C90.3837 24.0193 90.5605 24.3854 90.641 24.7279C90.7345 25.0727 90.76 25.3854 90.7173 25.6661C90.6823 25.9413 90.6091 26.1865 90.4976 26.4014L90.6101 26.5619L93.9118 24.2476L94.5466 25.1533L86.5217 30.7783L85.9029 29.8955L86.8315 29.2446L86.719 29.0841C86.3291 29.1295 85.9108 29.0694 85.4642 28.9037C85.0175 28.7381 84.5906 28.3648 84.1835 27.784ZM85.1547 27.4622C85.5619 28.0431 86.0748 28.3845 86.6934 28.4866C87.325 28.591 87.9733 28.4101 88.6382 27.944L88.7414 27.8717C89.4063 27.4056 89.7937 26.8606 89.9034 26.2366C90.0261 25.6149 89.8839 25.0136 89.4767 24.4328C89.0749 23.8595 88.5555 23.5169 87.9185 23.4049C87.2945 23.2952 86.6501 23.4734 85.9852 23.9395L85.882 24.0118C85.2171 24.4779 84.8259 25.0256 84.7086 25.655C84.6042 26.2866 84.7529 26.889 85.1547 27.4622ZM88.3443 35.175C88.065 34.5433 87.9502 33.9257 87.9997 33.3221C88.0531 32.7271 88.2584 32.1873 88.6157 31.7029C88.9853 31.2231 89.4987 30.838 90.1561 30.5475L90.3225 30.4739C90.9713 30.1871 91.5975 30.0685 92.201 30.118C92.8084 30.1761 93.35 30.3857 93.8259 30.7468C94.3057 31.1164 94.6851 31.617 94.9644 32.2487C95.2436 32.8804 95.3565 33.4938 95.3032 34.0888C95.2537 34.6924 95.0441 35.234 94.6745 35.7137C94.3087 36.202 93.8014 36.5895 93.1526 36.8763L92.9861 36.9499C92.3288 37.2404 91.6965 37.3566 91.0891 37.2986C90.4941 37.2452 89.9568 37.0338 89.477 36.6642C89.0011 36.3031 88.6235 35.8067 88.3443 35.175ZM89.2534 34.7731C89.5477 35.439 89.9908 35.8758 90.5827 36.0836C91.1869 36.2961 91.8475 36.2439 92.5646 35.927L92.6798 35.876C93.3969 35.5591 93.8759 35.1075 94.1168 34.5214C94.3701 33.94 94.3495 33.3164 94.0552 32.6506C93.7647 31.9933 93.3173 31.5584 92.7131 31.3458C92.1175 31.1295 91.4611 31.1798 90.7441 31.4968L90.6288 31.5477C89.9117 31.8647 89.4285 32.3181 89.179 32.908C88.9381 33.4941 88.9629 34.1158 89.2534 34.7731ZM90.3381 40.3516L96.7903 37.6833L97.0066 38.7822L91.2365 41.0737L91.2743 41.266L97.5527 41.557L97.9069 43.3565L92.2071 46.0051L92.2449 46.1974L98.453 46.1313L98.6693 47.2302L91.6872 47.2061L91.3222 45.3516L97.0194 42.6893L96.9842 42.5108L90.7031 42.206L90.3381 40.3516ZM91.9235 49.7223L98.7671 49.9014L98.7389 50.9791L97.5773 50.9487L97.5722 51.1446C97.8948 51.3024 98.1821 51.562 98.4341 51.9234C98.6952 52.2944 98.8165 52.8297 98.7982 53.5295C98.7848 54.0426 98.6655 54.497 98.4404 54.8926C98.2151 55.2975 97.8893 55.6158 97.4631 55.8474C97.0369 56.079 96.5159 56.1867 95.9001 56.1706L91.7576 56.0622L91.7865 54.9565L95.8451 55.0628C96.5262 55.0806 97.0252 54.9209 97.3421 54.5838C97.6588 54.2559 97.8247 53.8028 97.8399 53.2243C97.8572 52.5619 97.6568 52.0151 97.2386 51.584C96.8201 51.1623 96.1864 50.9403 95.3373 50.9181L91.8945 50.828L91.9235 49.7223ZM88.9681 66.187L89.8691 65.7311L91.1652 68.2927L91.3228 68.8454L91.4999 68.8445L91.6123 68.2773L94.0254 60.921L94.9965 61.2395L92.5834 68.5958L92.3247 69.1151L92.4668 69.2206L92.9212 68.8687L95.4828 67.5726L95.9387 68.4735L91.7694 70.5831L91.0777 70.3562L88.9681 66.187ZM84.0366 75.2723C84.4426 74.6906 84.9091 74.2422 85.4362 73.9272C85.9633 73.6122 86.527 73.4649 87.1273 73.4854C87.7298 73.5189 88.3449 73.7547 88.9726 74.1927L89.2137 74.3609L88.5487 75.3138L88.3076 75.1456C87.6417 74.6809 87.008 74.5289 86.4065 74.6896C85.8126 74.8556 85.302 75.2448 84.8748 75.8572C84.4368 76.4848 84.2446 77.062 84.2981 77.5887C84.3517 78.1155 84.5927 78.5284 85.0214 78.8275C85.3199 79.0358 85.6106 79.1248 85.8934 79.0946C86.1709 79.072 86.4567 78.9641 86.7508 78.771C87.0526 78.5832 87.3711 78.3389 87.7063 78.0379L88.2722 77.545C88.7204 77.1636 89.1581 76.8544 89.5852 76.6175C90.0122 76.3806 90.4395 76.2576 90.8669 76.2486C91.2966 76.2525 91.7373 76.4121 92.1888 76.7272C92.6404 77.0423 92.9533 77.4257 93.1276 77.8773C93.2965 78.3366 93.3274 78.8305 93.2204 79.359C93.108 79.8952 92.8649 80.4312 92.491 80.9669C92.1118 81.5104 91.677 81.9296 91.1865 82.2247C90.6984 82.5328 90.1852 82.6812 89.6468 82.6697C89.1109 82.6713 88.5673 82.4798 88.0162 82.0952L87.534 81.7588L88.199 80.8058L88.6812 81.1423C89.0715 81.4147 89.4441 81.5495 89.7989 81.5467C90.1483 81.5515 90.4819 81.4486 90.7997 81.2378C91.1121 81.0347 91.3965 80.7495 91.6529 80.3821C92.0214 79.854 92.1992 79.3464 92.1863 78.8593C92.181 78.3776 91.964 77.9872 91.5354 77.6881C91.2522 77.4905 90.9745 77.3992 90.7023 77.4141C90.4301 77.429 90.1485 77.5227 89.8574 77.6952C89.574 77.873 89.2674 78.1086 88.9375 78.4019L88.3716 78.8948C87.9463 79.2923 87.5175 79.6133 87.0851 79.8578C86.655 80.1154 86.2132 80.251 85.7598 80.2646C85.3141 80.2836 84.8539 80.1276 84.3794 79.7964C83.9048 79.4653 83.5743 79.0582 83.3878 78.5753C83.2013 78.0923 83.1607 77.5633 83.2661 76.9881C83.3739 76.4259 83.6307 75.854 84.0366 75.2723ZM78.9832 81.1257C79.4564 80.6619 79.981 80.3437 80.5569 80.1713C81.1327 80.012 81.7168 80.0145 82.3091 80.1789C82.8948 80.3497 83.4425 80.6951 83.9521 81.215L84.0599 81.3249C84.576 81.8515 84.9104 82.4059 85.0629 82.9883C85.2154 83.5838 85.203 84.1645 85.0257 84.7303C84.8484 85.3093 84.523 85.8308 84.0498 86.2946C83.5832 86.752 83.1017 87.0541 82.6053 87.2009C82.1021 87.3543 81.6168 87.3791 81.1492 87.2755C80.675 87.1783 80.2511 86.9926 79.8777 86.7183L80.4907 85.8037C80.7592 86.011 81.0548 86.1525 81.3775 86.2283C81.6935 86.3107 82.0202 86.3041 82.3578 86.2084C82.6953 86.1128 83.0241 85.9082 83.344 85.5946C83.6706 85.2745 83.892 84.9137 84.0082 84.5122C84.1178 84.1173 84.1153 83.7081 84.0007 83.2846C83.8794 82.8675 83.6326 82.4691 83.2602 82.0892L83.172 81.9992C82.7996 81.6193 82.4062 81.3645 81.9917 81.235C81.5705 81.112 81.1614 81.1013 80.7644 81.2029C80.3607 81.3111 79.9956 81.5252 79.669 81.8454C79.1824 82.3223 78.9366 82.8116 78.9316 83.3131C78.9199 83.8212 79.067 84.2913 79.3729 84.7233L78.4265 85.3178C78.1862 84.926 78.0222 84.492 77.9346 84.016C77.8469 83.5399 77.8848 83.0519 78.0482 82.5519C78.2049 82.0585 78.5166 81.5831 78.9832 81.1257ZM75.7936 84.291L79.827 89.8226L78.9559 90.4577L78.461 89.779L78.3026 89.8945C78.3806 90.2073 78.359 90.4945 78.2378 90.7561C78.1167 91.0177 77.8902 91.2695 77.5584 91.5114L76.9023 91.9898L76.3084 91.1753L77.0211 90.6557C77.4208 90.3642 77.6626 90.0147 77.7465 89.607C77.8283 89.2123 77.6988 88.7812 77.3579 88.3136L74.8999 84.9426L75.7936 84.291ZM69.3127 87.9927C69.9243 87.6719 70.5329 87.516 71.1384 87.5251C71.7357 87.5385 72.2879 87.7073 72.7952 88.0314C73.2986 88.3681 73.7171 88.8547 74.051 89.4911L74.1355 89.6523C74.465 90.2805 74.6252 90.8973 74.6161 91.5028C74.5987 92.1127 74.4258 92.6671 74.0974 93.1661C73.7607 93.6695 73.2865 94.0816 72.6749 94.4024C72.0632 94.7232 71.4588 94.8769 70.8615 94.8635C70.256 94.8544 69.7016 94.6815 69.1982 94.3447C68.6866 94.0124 68.2661 93.5321 67.9366 92.9039L67.852 92.7428C67.5182 92.1063 67.36 91.4832 67.3773 90.8733C67.3908 90.2761 67.5658 89.7258 67.9026 89.2224C68.231 88.7234 68.7011 88.3135 69.3127 87.9927ZM69.7744 88.8729C69.1297 89.2111 68.7235 89.6824 68.5557 90.2868C68.384 90.9039 68.4803 91.5595 68.8445 92.2538L68.903 92.3654C69.2672 93.0597 69.7497 93.5074 70.3506 93.7087C70.9476 93.9225 71.5684 93.8603 72.2131 93.5221C72.8495 93.1883 73.2536 92.7129 73.4253 92.0959C73.6013 91.4871 73.5073 90.8356 73.1431 90.1413L73.0845 90.0297C72.7204 89.3354 72.2357 88.8835 71.6304 88.674C71.0295 88.4728 70.4108 88.5391 69.7744 88.8729ZM65.1121 90.247L68.499 99.4431L67.4612 99.8254L64.0743 90.6292L65.1121 90.247ZM62.5268 91.1224L65.3368 100.511L64.2772 100.828L61.4672 91.4395L62.5268 91.1224ZM54.1338 92.3374C54.7197 92.288 55.2709 92.3821 55.7873 92.6195C56.3038 92.857 56.7285 93.2286 57.0615 93.7344C57.3945 94.2402 57.5916 94.8558 57.6528 95.5812L57.668 95.7626C57.7292 96.488 57.6376 97.1233 57.3932 97.6684C57.1496 98.2229 56.7977 98.66 56.3376 98.9798C55.869 99.3096 55.3371 99.4997 54.7419 99.5498C54.2676 99.5898 53.8622 99.5584 53.5257 99.4557C53.1807 99.363 52.8976 99.2276 52.6766 99.0496C52.4563 98.8808 52.2813 98.6942 52.1517 98.4897L51.9564 98.5062L52.2951 102.524L51.193 102.617L50.3697 92.8515L51.4438 92.7609L51.5391 93.8909L51.7344 93.8745C51.8914 93.5147 52.1539 93.1834 52.5217 92.8808C52.8896 92.5781 53.4269 92.397 54.1338 92.3374ZM53.9231 93.3387C53.2163 93.3983 52.6632 93.6697 52.2637 94.153C51.8557 94.6463 51.6858 95.2976 51.754 96.1067L51.7646 96.2323C51.8328 97.0414 52.109 97.6503 52.593 98.0591C53.0686 98.478 53.6598 98.6576 54.3666 98.598C55.0641 98.5392 55.6215 98.2627 56.0388 97.7686C56.4476 97.2845 56.6179 96.6379 56.5496 95.8288L56.5391 95.7032C56.4708 94.8941 56.1943 94.2805 55.7095 93.8624C55.2161 93.4544 54.6207 93.2799 53.9231 93.3387ZM45.6503 92.2316C46.337 92.3053 46.9294 92.5145 47.4274 92.859C47.9162 93.2025 48.2811 93.65 48.5223 94.2016C48.7531 94.7615 48.8302 95.3987 48.7534 96.1132L48.734 96.2942C48.6582 96.9995 48.4481 97.6011 48.1036 98.0992C47.7498 98.5962 47.2976 98.9607 46.747 99.1925C46.1872 99.4234 45.5639 99.5019 44.8772 99.4282C44.1904 99.3544 43.6027 99.1457 43.1139 98.8022C42.6159 98.4577 42.2514 98.0055 42.0206 97.4457C41.7804 96.8848 41.6983 96.2518 41.774 95.5465L41.7935 95.3655C41.8702 94.651 42.0855 94.0452 42.4393 93.5481C42.7828 93.0593 43.2345 92.6995 43.7943 92.4687C44.3449 92.2368 44.9636 92.1578 45.6503 92.2316ZM45.5441 93.2199C44.8203 93.1421 44.2205 93.3077 43.7448 93.7165C43.2588 94.1337 42.9739 94.732 42.8901 95.5115L42.8767 95.6368C42.7929 96.4163 42.9447 97.0568 43.332 97.5584C43.7091 98.0683 44.2595 98.3621 44.9833 98.4398C45.6979 98.5166 46.2982 98.3464 46.7842 97.9293C47.2692 97.5214 47.5535 96.9277 47.6373 96.1482L47.6507 96.0229C47.7345 95.2434 47.5832 94.5982 47.1969 94.0874C46.8096 93.5858 46.2587 93.2966 45.5441 93.2199ZM40.1699 91.3683L39.2446 98.2888L38.1853 97.9251L39.0948 91.7837L38.9094 91.72L35.5105 97.0068L33.7759 96.4113L34.3411 90.1516L34.1558 90.088L31.1011 95.493L30.0418 95.1293L33.5625 89.0998L35.3501 89.7135L34.7981 95.9777L34.9702 96.0368L38.3823 90.7546L40.1699 91.3683ZM31.2658 88.0411L27.6733 93.8688L26.7557 93.3031L27.3654 92.314L27.1986 92.2111C26.9 92.4108 26.5313 92.5289 26.0922 92.5652C25.6403 92.6046 25.1164 92.4406 24.5206 92.0733C24.0836 91.8039 23.7506 91.4726 23.5216 91.0792C23.2847 90.681 23.1731 90.2394 23.187 89.7546C23.2008 89.2697 23.3693 88.7651 23.6926 88.2407L25.8672 84.7131L26.8086 85.2935L24.6781 88.7496C24.3206 89.3296 24.208 89.8413 24.3403 90.2847C24.4647 90.7232 24.7732 91.0943 25.2658 91.3979C25.8299 91.7457 26.4034 91.847 26.9862 91.7019C27.5611 91.5519 28.0714 91.1155 28.5171 90.3925L30.3243 87.4608L31.2658 88.0411ZM18.5156 77.2094L18.4582 78.2175L15.592 78.0542L15.0348 77.9134L14.9468 78.067L15.3811 78.4487L20.5352 84.2257L19.7726 84.9061L14.6185 79.1291L14.2991 78.6449L14.1364 78.7149L14.213 79.2845L14.0497 82.1507L13.0416 82.0932L13.3074 77.4282L13.8506 76.9436L18.5156 77.2094ZM13.1155 68.3936C13.4161 69.0361 13.5709 69.6644 13.58 70.2784C13.589 70.8924 13.4345 71.4541 13.1165 71.9636C12.786 72.4686 12.2741 72.8832 11.5809 73.2076L11.3146 73.3322L10.8222 72.2797L11.0885 72.1551C11.824 71.811 12.2726 71.3383 12.4344 70.7371C12.5877 70.1398 12.5062 69.503 12.1898 68.8267C11.8654 68.1335 11.4618 67.6783 10.979 67.4612C10.4961 67.244 10.0179 67.2462 9.54453 67.4677C9.21483 67.6219 8.99232 67.8291 8.87699 68.0891C8.7577 68.3407 8.7081 68.6421 8.72819 68.9934C8.73982 69.3486 8.79209 69.7466 8.88499 70.1875L9.02866 70.924C9.13468 71.503 9.18342 72.0366 9.17488 72.5249C9.16634 73.0132 9.05908 73.4447 8.85308 73.8193C8.63468 74.1894 8.27609 74.4911 7.77732 74.7245C7.27854 74.9578 6.79005 75.037 6.31183 74.9619C5.82966 74.8783 5.38654 74.658 4.98247 74.301C4.57444 73.9354 4.23199 73.4568 3.95512 72.865C3.67429 72.2648 3.5288 71.6785 3.51864 71.1062C3.49608 70.5295 3.6244 70.0109 3.90361 69.5505C4.17041 69.0856 4.60815 68.7108 5.21682 68.426L5.74941 68.1768L6.24185 69.2293L5.70926 69.4785C5.27812 69.6802 4.97502 69.9354 4.79997 70.244C4.62097 70.5441 4.54322 70.8845 4.56671 71.2651C4.58625 71.6372 4.69095 72.0261 4.88081 72.4319C5.15372 73.0152 5.50428 73.4231 5.93247 73.6555C6.35221 73.8919 6.79878 73.8994 7.27219 73.6779C7.58498 73.5315 7.803 73.3368 7.92624 73.0937C8.04948 72.8505 8.10924 72.5598 8.10552 72.2215C8.09335 71.8871 8.04279 71.5038 7.95383 71.0714L7.81017 70.3349C7.67879 69.7678 7.61539 69.2358 7.61997 68.7391C7.61214 68.2378 7.71573 67.7875 7.93072 67.3881C8.13726 66.9926 8.50259 66.6723 9.02673 66.427C9.55086 66.1818 10.0687 66.0993 10.5802 66.1794C11.0917 66.2595 11.57 66.4891 12.0153 66.8681C12.4481 67.2426 12.8148 67.7511 13.1155 68.3936ZM10.585 61.0874C10.7484 61.7296 10.76 62.3431 10.6199 62.9277C10.4684 63.5056 10.1728 64.0093 9.73323 64.439C9.29132 64.8597 8.71761 65.1598 8.01209 65.3393L7.86285 65.3773C7.14829 65.5591 6.50092 65.5698 5.92074 65.4092C5.32922 65.2419 4.83333 64.9396 4.43308 64.5021C4.02148 64.0579 3.73397 63.5147 3.57054 62.8725C3.40941 62.2393 3.39004 61.6712 3.51243 61.1682C3.63251 60.6561 3.8548 60.2239 4.17928 59.8717C4.50147 59.5104 4.87496 59.2372 5.29975 59.052L5.78269 60.0415C5.46857 60.1696 5.19771 60.3541 4.97009 60.595C4.74017 60.8268 4.58179 61.1127 4.49493 61.4526C4.40808 61.7926 4.4199 62.1796 4.53038 62.6138C4.64317 63.057 4.84395 63.4296 5.13271 63.7318C5.41916 64.0248 5.77429 64.2282 6.19808 64.3419C6.61956 64.4465 7.08809 64.4332 7.60366 64.302L7.72577 64.2709C8.24133 64.1397 8.65922 63.9274 8.97943 63.6341C9.29734 63.3317 9.51205 62.9833 9.62357 62.5889C9.7328 62.1855 9.73101 61.7622 9.61823 61.319C9.4502 60.6587 9.15059 60.2005 8.71941 59.9442C8.28593 59.6789 7.80557 59.57 7.27833 59.6175L7.23967 58.5006C7.69915 58.4896 8.15674 58.5657 8.61243 58.7291C9.06812 58.8924 9.47109 59.1703 9.82135 59.5627C10.1693 59.946 10.4239 60.4543 10.585 61.0874ZM9.44932 56.7394L2.64055 57.4524L2.52828 56.3803L3.36371 56.2928L3.3433 56.0979C3.03362 56.0083 2.79604 55.8455 2.63056 55.6094C2.46507 55.3734 2.36095 55.0511 2.31818 54.6427L2.23361 53.8351L3.23613 53.7301L3.32799 54.6073C3.3795 55.0993 3.56054 55.4839 3.87109 55.7611C4.17139 56.0299 4.6093 56.1342 5.18482 56.0739L9.33414 55.6394L9.44932 56.7394ZM9.50446 49.2759C9.47425 49.9659 9.30298 50.5703 8.99066 51.0891C8.67874 51.5986 8.25517 51.9911 7.71994 52.2667C7.17579 52.5325 6.54473 52.6496 5.82675 52.6182L5.64493 52.6102C4.93627 52.5792 4.32253 52.4075 3.80369 52.0952C3.28526 51.7736 2.89295 51.3453 2.62675 50.8105C2.36097 50.2664 2.24318 49.6493 2.27338 48.9593C2.30359 48.2693 2.47465 47.6695 2.78657 47.16C3.0989 46.6412 3.52713 46.2489 4.07128 45.9831C4.61583 45.708 5.24243 45.5859 5.95109 45.6169L6.13291 45.6249C6.85089 45.6563 7.4691 45.8329 7.98753 46.1545C8.49704 46.4664 8.88469 46.8945 9.15048 47.4386C9.41667 47.9734 9.53467 48.5858 9.50446 49.2759ZM8.51141 49.2324C8.54325 48.5051 8.34011 47.917 7.90199 47.468C7.45496 47.0094 6.83982 46.7629 6.05657 46.7286L5.93069 46.7231C5.14744 46.6888 4.51777 46.8808 4.04169 47.299C3.55669 47.7075 3.29827 48.2755 3.26643 49.0028C3.235 49.7207 3.4428 50.3091 3.88983 50.7677C4.32754 51.226 4.93802 51.4722 5.72127 51.5065L5.84715 51.512C6.6304 51.5463 7.26473 51.3545 7.75014 50.9367C8.22622 50.5185 8.47998 49.9504 8.51141 49.2324ZM9.66148 44.5089L-2.50619e-05 42.8671L0.18526 41.7768L9.84676 43.4185L9.66148 44.5089ZM10.2007 41.8336L0.682015 39.5024L0.945104 38.4281L10.4638 40.7593L10.2007 41.8336ZM13.3469 33.958C13.0963 34.4899 12.7389 34.9199 12.2747 35.248C11.8105 35.5761 11.2762 35.7577 10.6716 35.7926C10.067 35.8275 9.43546 35.6898 8.77692 35.3795L8.61228 35.3019C7.95374 34.9916 7.44974 34.5942 7.10028 34.1096C6.74237 33.6211 6.54022 33.0977 6.49383 32.5393C6.44297 31.9685 6.54486 31.4129 6.79949 30.8726C7.0024 30.442 7.23258 30.1068 7.49003 29.867C7.74302 29.6148 8.00193 29.4376 8.26676 29.3354C8.52315 29.2292 8.77231 29.1712 9.01423 29.1614L9.09779 28.9841L5.45048 27.2653L5.92195 26.2649L14.7869 30.4424L14.3274 31.4176L13.3016 30.9342L13.218 31.1115C13.4509 31.4275 13.6061 31.8206 13.6839 32.2905C13.7616 32.7605 13.6493 33.3163 13.3469 33.958ZM12.5857 33.2743C12.8881 32.6326 12.9302 32.0179 12.7119 31.4301C12.4892 30.8299 12.0106 30.3567 11.276 30.0106L11.1621 29.9569C10.4275 29.6107 9.76215 29.5448 9.16592 29.7591C8.56523 29.961 8.11369 30.3827 7.81131 31.0244C7.51292 31.6576 7.47309 32.2785 7.69184 32.8872C7.90612 33.4834 8.38052 33.9546 9.11505 34.3007L9.22903 34.3544C9.96355 34.7006 10.6332 34.7685 11.2378 34.5582C11.838 34.3355 12.2873 33.9075 12.5857 33.2743ZM17.702 26.6786C17.2919 27.2343 16.8124 27.6403 16.2637 27.8965C15.7205 28.1452 15.15 28.2345 14.5521 28.1644C13.9522 28.0812 13.3632 27.8262 12.785 27.3994L12.6386 27.2914C12.0679 26.8701 11.6544 26.3851 11.3982 25.8364C11.1476 25.2802 11.061 24.7059 11.1386 24.1135C11.2218 23.5137 11.4684 22.9359 11.8786 22.3802C12.2888 21.8245 12.7655 21.4223 13.3086 21.1737C13.8574 20.9175 14.4316 20.8309 15.0315 20.9141C15.6369 20.9897 16.2249 21.2382 16.7957 21.6594L16.9421 21.7675C17.5203 22.1943 17.9347 22.6858 18.1854 23.242C18.4341 23.7852 18.5168 24.3567 18.4337 24.9566C18.3561 25.5489 18.1122 26.123 17.702 26.6786ZM16.9023 26.0883C17.3346 25.5026 17.4943 24.9012 17.3813 24.2842C17.2664 23.6541 16.8935 23.1063 16.2627 22.6407L16.1614 22.5659C15.5306 22.1003 14.901 21.9082 14.2725 21.9895C13.6421 22.0578 13.1107 22.3848 12.6783 22.9705C12.2516 23.5487 12.0956 24.1529 12.2106 24.783C12.318 25.4075 12.6871 25.9525 13.3179 26.4181L13.4193 26.493C14.0501 26.9586 14.6834 27.1535 15.3194 27.0777C15.9479 26.9963 16.4755 26.6665 16.9023 26.0883ZM21.2076 22.376L15.6834 18.106L16.5291 17.3718L21.3872 21.2375L21.5352 21.109L18.6645 15.5177L20.0494 14.3153L25.1823 17.9424L25.3303 17.8139L22.1848 12.4613L23.0305 11.727L26.4828 17.796L25.0556 19.035L19.9121 15.4172L19.7747 15.5365L22.6348 21.1369L21.2076 22.376ZM28.5496 16.3382L25.301 10.312L26.2498 9.8005L26.8013 10.8233L26.9738 10.7303C26.9502 10.3719 27.0325 9.99355 27.2207 9.59522C27.4127 9.18423 27.8167 8.81266 28.4329 8.48049C28.8848 8.2369 29.3383 8.11436 29.7934 8.11287C30.2567 8.10695 30.6949 8.23127 31.1078 8.48582C31.5207 8.74037 31.8733 9.13875 32.1656 9.68098L34.1321 13.3287L33.1585 13.8535L31.2319 10.2798C30.9086 9.68001 30.5219 9.32653 30.0718 9.21928C29.6298 9.10761 29.1542 9.18907 28.6448 9.46367C28.0615 9.77812 27.6869 10.224 27.5209 10.8012C27.3632 11.374 27.4858 12.0342 27.8888 12.7818L29.5231 15.8133L28.5496 16.3382ZM44.3212 10.7947L43.4831 10.2315L45.0846 7.84878L45.4897 7.44121L45.4024 7.28712L44.8526 7.46626L37.2553 8.956L37.0586 7.9531L44.656 6.46336L45.2354 6.43534L45.258 6.25971L44.729 6.03532L42.3463 4.43387L42.9096 3.59582L46.7876 6.20231L46.9277 6.91671L44.3212 10.7947Z" fill="white"/>
</svg>
