<svg width="1440" height="652" viewBox="0 0 1440 652" fill="none" xmlns="http://www.w3.org/2000/svg">
<mask id="path-1-inside-1_46_626" fill="white">
<path d="M0 0H102.857V93.1429H0V0Z"/>
<path d="M102.857 0H205.714V93.1429H102.857V0Z"/>
<path d="M205.714 0H308.571V93.1429H205.714V0Z"/>
<path d="M308.571 0H411.429V93.1429H308.571V0Z"/>
<path d="M411.429 0H514.286V93.1429H411.429V0Z"/>
<path d="M514.286 0H617.143V93.1429H514.286V0Z"/>
<path d="M617.143 0H720V93.1429H617.143V0Z"/>
<path d="M720 0H822.857V93.1429H720V0Z"/>
<path d="M822.857 0H925.714V93.1429H822.857V0Z"/>
<path d="M925.714 0H1028.57V93.1429H925.714V0Z"/>
<path d="M1028.57 0H1131.43V93.1429H1028.57V0Z"/>
<path d="M1131.43 0H1234.29V93.1429H1131.43V0Z"/>
<path d="M1234.29 0H1337.14V93.1429H1234.29V0Z"/>
<path d="M1337.14 0H1440V93.1429H1337.14V0Z"/>
<path d="M0 93.1429H102.857V186.286H0V93.1429Z"/>
<path d="M102.857 93.1429H205.714V186.286H102.857V93.1429Z"/>
<path d="M205.714 93.1429H308.571V186.286H205.714V93.1429Z"/>
<path d="M308.571 93.1429H411.429V186.286H308.571V93.1429Z"/>
<path d="M411.429 93.1429H514.286V186.286H411.429V93.1429Z"/>
<path d="M514.286 93.1429H617.143V186.286H514.286V93.1429Z"/>
<path d="M617.143 93.1429H720V186.286H617.143V93.1429Z"/>
<path d="M720 93.1429H822.857V186.286H720V93.1429Z"/>
<path d="M822.857 93.1429H925.714V186.286H822.857V93.1429Z"/>
<path d="M925.714 93.1429H1028.57V186.286H925.714V93.1429Z"/>
<path d="M1028.57 93.1429H1131.43V186.286H1028.57V93.1429Z"/>
<path d="M1131.43 93.1429H1234.29V186.286H1131.43V93.1429Z"/>
<path d="M1234.29 93.1429H1337.14V186.286H1234.29V93.1429Z"/>
<path d="M1337.14 93.1429H1440V186.286H1337.14V93.1429Z"/>
<path d="M0 186.286H102.857V279.429H0V186.286Z"/>
<path d="M102.857 186.286H205.714V279.429H102.857V186.286Z"/>
<path d="M205.714 186.286H308.571V279.429H205.714V186.286Z"/>
<path d="M308.571 186.286H411.429V279.429H308.571V186.286Z"/>
<path d="M411.429 186.286H514.286V279.429H411.429V186.286Z"/>
<path d="M514.286 186.286H617.143V279.429H514.286V186.286Z"/>
<path d="M617.143 186.286H720V279.429H617.143V186.286Z"/>
<path d="M720 186.286H822.857V279.429H720V186.286Z"/>
<path d="M822.857 186.286H925.714V279.429H822.857V186.286Z"/>
<path d="M925.714 186.286H1028.57V279.429H925.714V186.286Z"/>
<path d="M1028.57 186.286H1131.43V279.429H1028.57V186.286Z"/>
<path d="M1131.43 186.286H1234.29V279.429H1131.43V186.286Z"/>
<path d="M1234.29 186.286H1337.14V279.429H1234.29V186.286Z"/>
<path d="M1337.14 186.286H1440V279.429H1337.14V186.286Z"/>
<path d="M0 279.429H102.857V372.571H0V279.429Z"/>
<path d="M102.857 279.429H205.714V372.571H102.857V279.429Z"/>
<path d="M205.714 279.429H308.571V372.571H205.714V279.429Z"/>
<path d="M308.571 279.429H411.429V372.571H308.571V279.429Z"/>
<path d="M411.429 279.429H514.286V372.571H411.429V279.429Z"/>
<path d="M514.286 279.429H617.143V372.571H514.286V279.429Z"/>
<path d="M617.143 279.429H720V372.571H617.143V279.429Z"/>
<path d="M720 279.429H822.857V372.571H720V279.429Z"/>
<path d="M822.857 279.429H925.714V372.571H822.857V279.429Z"/>
<path d="M925.714 279.429H1028.57V372.571H925.714V279.429Z"/>
<path d="M1028.57 279.429H1131.43V372.571H1028.57V279.429Z"/>
<path d="M1131.43 279.429H1234.29V372.571H1131.43V279.429Z"/>
<path d="M1234.29 279.429H1337.14V372.571H1234.29V279.429Z"/>
<path d="M1337.14 279.429H1440V372.571H1337.14V279.429Z"/>
<path d="M0 372.571H102.857V465.714H0V372.571Z"/>
<path d="M102.857 372.571H205.714V465.714H102.857V372.571Z"/>
<path d="M205.714 372.571H308.571V465.714H205.714V372.571Z"/>
<path d="M308.571 372.571H411.429V465.714H308.571V372.571Z"/>
<path d="M411.429 372.571H514.286V465.714H411.429V372.571Z"/>
<path d="M514.286 372.571H617.143V465.714H514.286V372.571Z"/>
<path d="M617.143 372.571H720V465.714H617.143V372.571Z"/>
<path d="M720 372.571H822.857V465.714H720V372.571Z"/>
<path d="M822.857 372.571H925.714V465.714H822.857V372.571Z"/>
<path d="M925.714 372.571H1028.57V465.714H925.714V372.571Z"/>
<path d="M1028.57 372.571H1131.43V465.714H1028.57V372.571Z"/>
<path d="M1131.43 372.571H1234.29V465.714H1131.43V372.571Z"/>
<path d="M1234.29 372.571H1337.14V465.714H1234.29V372.571Z"/>
<path d="M1337.14 372.571H1440V465.714H1337.14V372.571Z"/>
<path d="M0 465.714H102.857V558.857H0V465.714Z"/>
<path d="M102.857 465.714H205.714V558.857H102.857V465.714Z"/>
<path d="M205.714 465.714H308.571V558.857H205.714V465.714Z"/>
<path d="M308.571 465.714H411.429V558.857H308.571V465.714Z"/>
<path d="M411.429 465.714H514.286V558.857H411.429V465.714Z"/>
<path d="M514.286 465.714H617.143V558.857H514.286V465.714Z"/>
<path d="M617.143 465.714H720V558.857H617.143V465.714Z"/>
<path d="M720 465.714H822.857V558.857H720V465.714Z"/>
<path d="M822.857 465.714H925.714V558.857H822.857V465.714Z"/>
<path d="M925.714 465.714H1028.57V558.857H925.714V465.714Z"/>
<path d="M1028.57 465.714H1131.43V558.857H1028.57V465.714Z"/>
<path d="M1131.43 465.714H1234.29V558.857H1131.43V465.714Z"/>
<path d="M1234.29 465.714H1337.14V558.857H1234.29V465.714Z"/>
<path d="M1337.14 465.714H1440V558.857H1337.14V465.714Z"/>
<path d="M0 558.857H102.857V652H0V558.857Z"/>
<path d="M102.857 558.857H205.714V652H102.857V558.857Z"/>
<path d="M205.714 558.857H308.571V652H205.714V558.857Z"/>
<path d="M308.571 558.857H411.429V652H308.571V558.857Z"/>
<path d="M411.429 558.857H514.286V652H411.429V558.857Z"/>
<path d="M514.286 558.857H617.143V652H514.286V558.857Z"/>
<path d="M617.143 558.857H720V652H617.143V558.857Z"/>
<path d="M720 558.857H822.857V652H720V558.857Z"/>
<path d="M822.857 558.857H925.714V652H822.857V558.857Z"/>
<path d="M925.714 558.857H1028.57V652H925.714V558.857Z"/>
<path d="M1028.57 558.857H1131.43V652H1028.57V558.857Z"/>
<path d="M1131.43 558.857H1234.29V652H1131.43V558.857Z"/>
<path d="M1234.29 558.857H1337.14V652H1234.29V558.857Z"/>
<path d="M1337.14 558.857H1440V652H1337.14V558.857Z"/>
</mask>
<path d="M102.857 0H102.357V93.1429H102.857H103.357V0H102.857ZM102.857 93.1429V92.6429H0V93.1429V93.6429H102.857V93.1429ZM205.714 0H205.214V93.1429H205.714H206.214V0H205.714ZM205.714 93.1429V92.6429H102.857V93.1429V93.6429H205.714V93.1429ZM308.571 0H308.071V93.1429H308.571H309.071V0H308.571ZM308.571 93.1429V92.6429H205.714V93.1429V93.6429H308.571V93.1429ZM411.429 0H410.929V93.1429H411.429H411.929V0H411.429ZM411.429 93.1429V92.6429H308.571V93.1429V93.6429H411.429V93.1429ZM514.286 0H513.786V93.1429H514.286H514.786V0H514.286ZM514.286 93.1429V92.6429H411.429V93.1429V93.6429H514.286V93.1429ZM617.143 0H616.643V93.1429H617.143H617.643V0H617.143ZM617.143 93.1429V92.6429H514.286V93.1429V93.6429H617.143V93.1429ZM720 0H719.5V93.1429H720H720.5V0H720ZM720 93.1429V92.6429H617.143V93.1429V93.6429H720V93.1429ZM822.857 0H822.357V93.1429H822.857H823.357V0H822.857ZM822.857 93.1429V92.6429H720V93.1429V93.6429H822.857V93.1429ZM925.714 0H925.214V93.1429H925.714H926.214V0H925.714ZM925.714 93.1429V92.6429H822.857V93.1429V93.6429H925.714V93.1429ZM1028.57 0H1028.07V93.1429H1028.57H1029.07V0H1028.57ZM1028.57 93.1429V92.6429H925.714V93.1429V93.6429H1028.57V93.1429ZM1131.43 0H1130.93V93.1429H1131.43H1131.93V0H1131.43ZM1131.43 93.1429V92.6429H1028.57V93.1429V93.6429H1131.43V93.1429ZM1234.29 0H1233.79V93.1429H1234.29H1234.79V0H1234.29ZM1234.29 93.1429V92.6429H1131.43V93.1429V93.6429H1234.29V93.1429ZM1337.14 0H1336.64V93.1429H1337.14H1337.64V0H1337.14ZM1337.14 93.1429V92.6429H1234.29V93.1429V93.6429H1337.14V93.1429ZM1440 93.1429V92.6429H1337.14V93.1429V93.6429H1440V93.1429ZM102.857 93.1429H102.357V186.286H102.857H103.357V93.1429H102.857ZM102.857 186.286V185.786H0V186.286V186.786H102.857V186.286ZM205.714 93.1429H205.214V186.286H205.714H206.214V93.1429H205.714ZM205.714 186.286V185.786H102.857V186.286V186.786H205.714V186.286ZM308.571 93.1429H308.071V186.286H308.571H309.071V93.1429H308.571ZM308.571 186.286V185.786H205.714V186.286V186.786H308.571V186.286ZM411.429 93.1429H410.929V186.286H411.429H411.929V93.1429H411.429ZM411.429 186.286V185.786H308.571V186.286V186.786H411.429V186.286ZM514.286 93.1429H513.786V186.286H514.286H514.786V93.1429H514.286ZM514.286 186.286V185.786H411.429V186.286V186.786H514.286V186.286ZM617.143 93.1429H616.643V186.286H617.143H617.643V93.1429H617.143ZM617.143 186.286V185.786H514.286V186.286V186.786H617.143V186.286ZM720 93.1429H719.5V186.286H720H720.5V93.1429H720ZM720 186.286V185.786H617.143V186.286V186.786H720V186.286ZM822.857 93.1429H822.357V186.286H822.857H823.357V93.1429H822.857ZM822.857 186.286V185.786H720V186.286V186.786H822.857V186.286ZM925.714 93.1429H925.214V186.286H925.714H926.214V93.1429H925.714ZM925.714 186.286V185.786H822.857V186.286V186.786H925.714V186.286ZM1028.57 93.1429H1028.07V186.286H1028.57H1029.07V93.1429H1028.57ZM1028.57 186.286V185.786H925.714V186.286V186.786H1028.57V186.286ZM1131.43 93.1429H1130.93V186.286H1131.43H1131.93V93.1429H1131.43ZM1131.43 186.286V185.786H1028.57V186.286V186.786H1131.43V186.286ZM1234.29 93.1429H1233.79V186.286H1234.29H1234.79V93.1429H1234.29ZM1234.29 186.286V185.786H1131.43V186.286V186.786H1234.29V186.286ZM1337.14 93.1429H1336.64V186.286H1337.14H1337.64V93.1429H1337.14ZM1337.14 186.286V185.786H1234.29V186.286V186.786H1337.14V186.286ZM1440 186.286V185.786H1337.14V186.286V186.786H1440V186.286ZM102.857 186.286H102.357V279.429H102.857H103.357V186.286H102.857ZM102.857 279.429V278.929H0V279.429V279.929H102.857V279.429ZM205.714 186.286H205.214V279.429H205.714H206.214V186.286H205.714ZM205.714 279.429V278.929H102.857V279.429V279.929H205.714V279.429ZM308.571 186.286H308.071V279.429H308.571H309.071V186.286H308.571ZM308.571 279.429V278.929H205.714V279.429V279.929H308.571V279.429ZM411.429 186.286H410.929V279.429H411.429H411.929V186.286H411.429ZM411.429 279.429V278.929H308.571V279.429V279.929H411.429V279.429ZM514.286 186.286H513.786V279.429H514.286H514.786V186.286H514.286ZM514.286 279.429V278.929H411.429V279.429V279.929H514.286V279.429ZM617.143 186.286H616.643V279.429H617.143H617.643V186.286H617.143ZM617.143 279.429V278.929H514.286V279.429V279.929H617.143V279.429ZM720 186.286H719.5V279.429H720H720.5V186.286H720ZM720 279.429V278.929H617.143V279.429V279.929H720V279.429ZM822.857 186.286H822.357V279.429H822.857H823.357V186.286H822.857ZM822.857 279.429V278.929H720V279.429V279.929H822.857V279.429ZM925.714 186.286H925.214V279.429H925.714H926.214V186.286H925.714ZM925.714 279.429V278.929H822.857V279.429V279.929H925.714V279.429ZM1028.57 186.286H1028.07V279.429H1028.57H1029.07V186.286H1028.57ZM1028.57 279.429V278.929H925.714V279.429V279.929H1028.57V279.429ZM1131.43 186.286H1130.93V279.429H1131.43H1131.93V186.286H1131.43ZM1131.43 279.429V278.929H1028.57V279.429V279.929H1131.43V279.429ZM1234.29 186.286H1233.79V279.429H1234.29H1234.79V186.286H1234.29ZM1234.29 279.429V278.929H1131.43V279.429V279.929H1234.29V279.429ZM1337.14 186.286H1336.64V279.429H1337.14H1337.64V186.286H1337.14ZM1337.14 279.429V278.929H1234.29V279.429V279.929H1337.14V279.429ZM1440 279.429V278.929H1337.14V279.429V279.929H1440V279.429ZM102.857 279.429H102.357V372.571H102.857H103.357V279.429H102.857ZM102.857 372.571V372.071H0V372.571V373.071H102.857V372.571ZM205.714 279.429H205.214V372.571H205.714H206.214V279.429H205.714ZM205.714 372.571V372.071H102.857V372.571V373.071H205.714V372.571ZM308.571 279.429H308.071V372.571H308.571H309.071V279.429H308.571ZM308.571 372.571V372.071H205.714V372.571V373.071H308.571V372.571ZM411.429 279.429H410.929V372.571H411.429H411.929V279.429H411.429ZM411.429 372.571V372.071H308.571V372.571V373.071H411.429V372.571ZM514.286 279.429H513.786V372.571H514.286H514.786V279.429H514.286ZM514.286 372.571V372.071H411.429V372.571V373.071H514.286V372.571ZM617.143 279.429H616.643V372.571H617.143H617.643V279.429H617.143ZM617.143 372.571V372.071H514.286V372.571V373.071H617.143V372.571ZM720 279.429H719.5V372.571H720H720.5V279.429H720ZM720 372.571V372.071H617.143V372.571V373.071H720V372.571ZM822.857 279.429H822.357V372.571H822.857H823.357V279.429H822.857ZM822.857 372.571V372.071H720V372.571V373.071H822.857V372.571ZM925.714 279.429H925.214V372.571H925.714H926.214V279.429H925.714ZM925.714 372.571V372.071H822.857V372.571V373.071H925.714V372.571ZM1028.57 279.429H1028.07V372.571H1028.57H1029.07V279.429H1028.57ZM1028.57 372.571V372.071H925.714V372.571V373.071H1028.57V372.571ZM1131.43 279.429H1130.93V372.571H1131.43H1131.93V279.429H1131.43ZM1131.43 372.571V372.071H1028.57V372.571V373.071H1131.43V372.571ZM1234.29 279.429H1233.79V372.571H1234.29H1234.79V279.429H1234.29ZM1234.29 372.571V372.071H1131.43V372.571V373.071H1234.29V372.571ZM1337.14 279.429H1336.64V372.571H1337.14H1337.64V279.429H1337.14ZM1337.14 372.571V372.071H1234.29V372.571V373.071H1337.14V372.571ZM1440 372.571V372.071H1337.14V372.571V373.071H1440V372.571ZM102.857 372.571H102.357V465.714H102.857H103.357V372.571H102.857ZM102.857 465.714V465.214H0V465.714V466.214H102.857V465.714ZM205.714 372.571H205.214V465.714H205.714H206.214V372.571H205.714ZM205.714 465.714V465.214H102.857V465.714V466.214H205.714V465.714ZM308.571 372.571H308.071V465.714H308.571H309.071V372.571H308.571ZM308.571 465.714V465.214H205.714V465.714V466.214H308.571V465.714ZM411.429 372.571H410.929V465.714H411.429H411.929V372.571H411.429ZM411.429 465.714V465.214H308.571V465.714V466.214H411.429V465.714ZM514.286 372.571H513.786V465.714H514.286H514.786V372.571H514.286ZM514.286 465.714V465.214H411.429V465.714V466.214H514.286V465.714ZM617.143 372.571H616.643V465.714H617.143H617.643V372.571H617.143ZM617.143 465.714V465.214H514.286V465.714V466.214H617.143V465.714ZM720 372.571H719.5V465.714H720H720.5V372.571H720ZM720 465.714V465.214H617.143V465.714V466.214H720V465.714ZM822.857 372.571H822.357V465.714H822.857H823.357V372.571H822.857ZM822.857 465.714V465.214H720V465.714V466.214H822.857V465.714ZM925.714 372.571H925.214V465.714H925.714H926.214V372.571H925.714ZM925.714 465.714V465.214H822.857V465.714V466.214H925.714V465.714ZM1028.57 372.571H1028.07V465.714H1028.57H1029.07V372.571H1028.57ZM1028.57 465.714V465.214H925.714V465.714V466.214H1028.57V465.714ZM1131.43 372.571H1130.93V465.714H1131.43H1131.93V372.571H1131.43ZM1131.43 465.714V465.214H1028.57V465.714V466.214H1131.43V465.714ZM1234.29 372.571H1233.79V465.714H1234.29H1234.79V372.571H1234.29ZM1234.29 465.714V465.214H1131.43V465.714V466.214H1234.29V465.714ZM1337.14 372.571H1336.64V465.714H1337.14H1337.64V372.571H1337.14ZM1337.14 465.714V465.214H1234.29V465.714V466.214H1337.14V465.714ZM1440 465.714V465.214H1337.14V465.714V466.214H1440V465.714ZM102.857 465.714H102.357V558.857H102.857H103.357V465.714H102.857ZM102.857 558.857V558.357H0V558.857V559.357H102.857V558.857ZM205.714 465.714H205.214V558.857H205.714H206.214V465.714H205.714ZM205.714 558.857V558.357H102.857V558.857V559.357H205.714V558.857ZM308.571 465.714H308.071V558.857H308.571H309.071V465.714H308.571ZM308.571 558.857V558.357H205.714V558.857V559.357H308.571V558.857ZM411.429 465.714H410.929V558.857H411.429H411.929V465.714H411.429ZM411.429 558.857V558.357H308.571V558.857V559.357H411.429V558.857ZM514.286 465.714H513.786V558.857H514.286H514.786V465.714H514.286ZM514.286 558.857V558.357H411.429V558.857V559.357H514.286V558.857ZM617.143 465.714H616.643V558.857H617.143H617.643V465.714H617.143ZM617.143 558.857V558.357H514.286V558.857V559.357H617.143V558.857ZM720 465.714H719.5V558.857H720H720.5V465.714H720ZM720 558.857V558.357H617.143V558.857V559.357H720V558.857ZM822.857 465.714H822.357V558.857H822.857H823.357V465.714H822.857ZM822.857 558.857V558.357H720V558.857V559.357H822.857V558.857ZM925.714 465.714H925.214V558.857H925.714H926.214V465.714H925.714ZM925.714 558.857V558.357H822.857V558.857V559.357H925.714V558.857ZM1028.57 465.714H1028.07V558.857H1028.57H1029.07V465.714H1028.57ZM1028.57 558.857V558.357H925.714V558.857V559.357H1028.57V558.857ZM1131.43 465.714H1130.93V558.857H1131.43H1131.93V465.714H1131.43ZM1131.43 558.857V558.357H1028.57V558.857V559.357H1131.43V558.857ZM1234.29 465.714H1233.79V558.857H1234.29H1234.79V465.714H1234.29ZM1234.29 558.857V558.357H1131.43V558.857V559.357H1234.29V558.857ZM1337.14 465.714H1336.64V558.857H1337.14H1337.64V465.714H1337.14ZM1337.14 558.857V558.357H1234.29V558.857V559.357H1337.14V558.857ZM1440 558.857V558.357H1337.14V558.857V559.357H1440V558.857ZM102.857 558.857H102.357V652H102.857H103.357V558.857H102.857ZM205.714 558.857H205.214V652H205.714H206.214V558.857H205.714ZM308.571 558.857H308.071V652H308.571H309.071V558.857H308.571ZM411.429 558.857H410.929V652H411.429H411.929V558.857H411.429ZM514.286 558.857H513.786V652H514.286H514.786V558.857H514.286ZM617.143 558.857H616.643V652H617.143H617.643V558.857H617.143ZM720 558.857H719.5V652H720H720.5V558.857H720ZM822.857 558.857H822.357V652H822.857H823.357V558.857H822.857ZM925.714 558.857H925.214V652H925.714H926.214V558.857H925.714ZM1028.57 558.857H1028.07V652H1028.57H1029.07V558.857H1028.57ZM1131.43 558.857H1130.93V652H1131.43H1131.93V558.857H1131.43ZM1234.29 558.857H1233.79V652H1234.29H1234.79V558.857H1234.29ZM1337.14 558.857H1336.64V652H1337.14H1337.64V558.857H1337.14ZM0 0V-1H-1V0H0ZM1440 0H1441V-1H1440V0ZM0 652H-1V653H0V652ZM1440 652V653H1441V652H1440ZM0 0V1H102.857V0V-1H0V0ZM0 93.1429H1V0H0H-1V93.1429H0ZM102.857 0V1H205.714V0V-1H102.857V0ZM205.714 0V1H308.571V0V-1H205.714V0ZM308.571 0V1H411.429V0V-1H308.571V0ZM411.429 0V1H514.286V0V-1H411.429V0ZM514.286 0V1H617.143V0V-1H514.286V0ZM617.143 0V1H720V0V-1H617.143V0ZM720 0V1H822.857V0V-1H720V0ZM822.857 0V1H925.714V0V-1H822.857V0ZM925.714 0V1H1028.57V0V-1H925.714V0ZM1028.57 0V1H1131.43V0V-1H1028.57V0ZM1131.43 0V1H1234.29V0V-1H1131.43V0ZM1234.29 0V1H1337.14V0V-1H1234.29V0ZM1337.14 0V1H1440V0V-1H1337.14V0ZM1440 0H1439V93.1429H1440H1441V0H1440ZM0 186.286H1V93.1429H0H-1V186.286H0ZM1440 93.1429H1439V186.286H1440H1441V93.1429H1440ZM0 279.429H1V186.286H0H-1V279.429H0ZM1440 186.286H1439V279.429H1440H1441V186.286H1440ZM0 372.571H1V279.429H0H-1V372.571H0ZM1440 279.429H1439V372.571H1440H1441V279.429H1440ZM0 465.714H1V372.571H0H-1V465.714H0ZM1440 372.571H1439V465.714H1440H1441V372.571H1440ZM0 558.857H1V465.714H0H-1V558.857H0ZM1440 465.714H1439V558.857H1440H1441V465.714H1440ZM102.857 652V651H0V652V653H102.857V652ZM0 652H1V558.857H0H-1V652H0ZM205.714 652V651H102.857V652V653H205.714V652ZM308.571 652V651H205.714V652V653H308.571V652ZM411.429 652V651H308.571V652V653H411.429V652ZM514.286 652V651H411.429V652V653H514.286V652ZM617.143 652V651H514.286V652V653H617.143V652ZM720 652V651H617.143V652V653H720V652ZM822.857 652V651H720V652V653H822.857V652ZM925.714 652V651H822.857V652V653H925.714V652ZM1028.57 652V651H925.714V652V653H1028.57V652ZM1131.43 652V651H1028.57V652V653H1131.43V652ZM1234.29 652V651H1131.43V652V653H1234.29V652ZM1337.14 652V651H1234.29V652V653H1337.14V652ZM1440 558.857H1439V652H1440H1441V558.857H1440ZM1440 652V651H1337.14V652V653H1440V652Z" fill="url(#paint0_linear_46_626)" mask="url(#path-1-inside-1_46_626)"/>
<defs>
<linearGradient id="paint0_linear_46_626" x1="720" y1="0" x2="720" y2="652" gradientUnits="userSpaceOnUse">
<stop stop-color="#2D6A4F"/>
<stop offset="1" stop-color="#081C15"/>
</linearGradient>
</defs>
</svg>
