<svg width="1200" height="226" viewBox="0 0 1200 226" fill="none" xmlns="http://www.w3.org/2000/svg">
<path d="M0 176.472V3.46024H62.0372L96.3925 154.228H100.841V3.46024H132.972V176.472H70.935L36.5797 25.7047H32.1308V176.472H0Z" fill="url(#paint0_linear_70_153)"/>
<path d="M192.271 179.933C183.538 179.933 175.712 178.45 168.791 175.484C161.871 172.353 156.351 167.904 152.231 162.137C148.277 156.205 146.3 149.038 146.3 140.634C146.3 132.231 148.277 125.228 152.231 119.626C156.351 113.859 161.953 109.574 169.038 106.773C176.288 103.807 184.527 102.324 193.754 102.324H227.368V95.4039C227.368 89.6368 225.556 84.9408 221.931 81.3158C218.306 77.526 212.539 75.6311 204.629 75.6311C196.885 75.6311 191.118 77.4436 187.328 81.0686C183.538 84.5288 181.067 89.0601 179.913 94.6624L151.243 85.0232C153.22 78.7618 156.351 73.0771 160.635 67.9691C165.084 62.6963 170.933 58.4946 178.183 55.3639C185.598 52.0684 194.578 50.4207 205.124 50.4207C221.272 50.4207 234.042 54.4577 243.434 62.5316C252.826 70.6055 257.522 82.3044 257.522 97.6283V143.353C257.522 148.296 259.829 150.768 264.442 150.768H274.329V176.472H253.567C247.471 176.472 242.445 174.99 238.49 172.024C234.536 169.058 232.559 165.103 232.559 160.16V159.913H227.863C227.203 161.89 225.72 164.526 223.414 167.822C221.107 170.953 217.482 173.754 212.539 176.225C207.595 178.697 200.84 179.933 192.271 179.933ZM197.709 154.722C206.442 154.722 213.527 152.333 218.965 147.555C224.567 142.612 227.368 136.103 227.368 128.029V125.557H195.979C190.212 125.557 185.68 126.793 182.385 129.265C179.09 131.736 177.442 135.197 177.442 139.646C177.442 144.094 179.172 147.719 182.632 150.521C186.092 153.322 191.118 154.722 197.709 154.722Z" fill="url(#paint1_linear_70_153)"/>
<path d="M284.74 176.472V53.881H315.388V69.9464H319.837C321.814 65.6623 325.522 61.6253 330.959 57.8355C336.397 53.881 344.635 51.9037 355.675 51.9037C365.232 51.9037 373.553 54.1281 380.638 58.577C387.889 62.8611 393.491 68.8754 397.445 76.6197C401.4 84.1993 403.377 93.0971 403.377 103.313V176.472H372.235V105.785C372.235 96.5573 369.928 89.6368 365.315 85.0232C360.866 80.4095 354.439 78.1027 346.036 78.1027C336.479 78.1027 329.064 81.3158 323.792 87.7419C318.519 94.0033 315.882 102.819 315.882 114.188V176.472H284.74Z" fill="url(#paint2_linear_70_153)"/>
<path d="M483.015 179.933C470.822 179.933 459.864 177.461 450.143 172.518C440.421 167.575 432.759 160.407 427.157 151.015C421.554 141.623 418.753 130.336 418.753 117.154V113.199C418.753 100.018 421.554 88.7306 427.157 79.3385C432.759 69.9464 440.421 62.7787 450.143 57.8355C459.864 52.8923 470.822 50.4207 483.015 50.4207C495.208 50.4207 506.166 52.8923 515.887 57.8355C525.609 62.7787 533.271 69.9464 538.873 79.3385C544.476 88.7306 547.277 100.018 547.277 113.199V117.154C547.277 130.336 544.476 141.623 538.873 151.015C533.271 160.407 525.609 167.575 515.887 172.518C506.166 177.461 495.208 179.933 483.015 179.933ZM483.015 152.251C492.572 152.251 500.481 149.202 506.742 143.106C513.004 136.844 516.135 127.947 516.135 116.413V113.941C516.135 102.407 513.004 93.5914 506.742 87.4948C500.646 81.2334 492.737 78.1027 483.015 78.1027C473.458 78.1027 465.549 81.2334 459.288 87.4948C453.026 93.5914 449.896 102.407 449.896 113.941V116.413C449.896 127.947 453.026 136.844 459.288 143.106C465.549 149.202 473.458 152.251 483.015 152.251Z" fill="url(#paint3_linear_70_153)"/>
<path d="M622.736 179.933C609.389 179.933 597.608 177.544 587.392 172.765C577.176 167.987 569.185 161.149 563.417 152.251C557.65 143.353 554.767 132.643 554.767 120.12V113.199H586.898V120.12C586.898 130.501 590.111 138.327 596.537 143.6C602.963 148.708 611.696 151.262 622.736 151.262C633.94 151.262 642.262 149.038 647.699 144.589C653.301 140.14 656.103 134.455 656.103 127.535C656.103 122.756 654.702 118.884 651.901 115.918C649.264 112.952 645.31 110.563 640.037 108.751C634.929 106.773 628.668 104.961 621.253 103.313L615.568 102.077C603.705 99.4408 593.489 96.1454 584.92 92.1908C576.517 88.0715 570.008 82.7163 565.395 76.1254C560.946 69.5344 558.721 60.9662 558.721 50.4207C558.721 39.8752 561.193 30.8951 566.136 23.4802C571.244 15.9007 578.329 10.1336 587.392 6.17902C596.619 2.05967 607.412 0 619.77 0C632.128 0 643.085 2.14206 652.642 6.42617C662.364 10.5455 669.944 16.8069 675.381 25.2104C680.983 33.449 683.784 43.8298 683.784 56.3526V63.7674H651.654V56.3526C651.654 49.7616 650.335 44.4889 647.699 40.5343C645.227 36.415 641.602 33.449 636.824 31.6365C632.046 29.6592 626.361 28.6706 619.77 28.6706C609.884 28.6706 602.551 30.5655 597.773 34.3553C593.159 37.9803 590.852 43.0059 590.852 49.4321C590.852 53.7162 591.923 57.3412 594.065 60.3071C596.372 63.2731 599.75 65.7447 604.199 67.7219C608.648 69.6992 614.332 71.4293 621.253 72.9123L626.938 74.1481C639.296 76.7845 650.006 80.1623 659.068 84.2817C668.296 88.401 675.463 93.8385 680.571 100.594C685.679 107.35 688.233 116.001 688.233 126.546C688.233 137.092 685.515 146.401 680.077 154.475C674.804 162.384 667.225 168.646 657.338 173.259C647.617 177.708 636.083 179.933 622.736 179.933Z" fill="url(#paint4_linear_70_153)"/>
<path d="M711.082 176.472L693.781 53.881H724.676L735.551 155.464H740L755.818 53.881H805.745L821.563 155.464H826.012L836.887 53.881H867.782L850.481 176.472H798.824L783.006 74.8896H778.557L762.739 176.472H711.082Z" fill="url(#paint5_linear_70_153)"/>
<path d="M920.719 179.933C911.986 179.933 904.159 178.45 897.238 175.484C890.318 172.353 884.798 167.904 880.679 162.137C876.724 156.205 874.747 149.038 874.747 140.634C874.747 132.231 876.724 125.228 880.679 119.626C884.798 113.859 890.4 109.574 897.485 106.773C904.736 103.807 912.974 102.324 922.202 102.324H955.815V95.4039C955.815 89.6368 954.003 84.9408 950.378 81.3158C946.753 77.526 940.986 75.6311 933.077 75.6311C925.332 75.6311 919.565 77.4436 915.775 81.0686C911.986 84.5288 909.514 89.0601 908.361 94.6624L879.69 85.0232C881.667 78.7618 884.798 73.0771 889.082 67.9691C893.531 62.6963 899.38 58.4946 906.63 55.3639C914.045 52.0684 923.025 50.4207 933.571 50.4207C949.719 50.4207 962.489 54.4577 971.881 62.5316C981.273 70.6055 985.969 82.3044 985.969 97.6283V143.353C985.969 148.296 988.276 150.768 992.889 150.768H1002.78V176.472H982.014C975.918 176.472 970.892 174.99 966.938 172.024C962.983 169.058 961.006 165.103 961.006 160.16V159.913H956.31C955.651 161.89 954.168 164.526 951.861 167.822C949.554 170.953 945.929 173.754 940.986 176.225C936.042 178.697 929.287 179.933 920.719 179.933ZM926.156 154.722C934.889 154.722 941.974 152.333 947.412 147.555C953.014 142.612 955.815 136.103 955.815 128.029V125.557H924.426C918.659 125.557 914.128 126.793 910.832 129.265C907.537 131.736 905.889 135.197 905.889 139.646C905.889 144.094 907.619 147.719 911.079 150.521C914.54 153.322 919.565 154.722 926.156 154.722Z" fill="url(#paint6_linear_70_153)"/>
<path d="M1013.19 225.905V53.881H1043.84V68.7106H1048.28C1051.09 63.9321 1055.45 59.7304 1061.38 56.1054C1067.32 52.3156 1075.8 50.4207 1086.84 50.4207C1096.73 50.4207 1105.87 52.8923 1114.28 57.8355C1122.68 62.614 1129.44 69.6992 1134.54 79.0913C1139.65 88.4834 1142.21 99.8528 1142.21 113.199V117.154C1142.21 130.501 1139.65 141.87 1134.54 151.262C1129.44 160.654 1122.68 167.822 1114.28 172.765C1105.87 177.544 1096.73 179.933 1086.84 179.933C1079.43 179.933 1073.17 179.026 1068.06 177.214C1063.11 175.566 1059.08 173.424 1055.95 170.788C1052.98 167.987 1050.59 165.186 1048.78 162.384H1044.33V225.905H1013.19ZM1077.45 152.745C1087.17 152.745 1095.16 149.697 1101.42 143.6C1107.85 137.339 1111.06 128.276 1111.06 116.413V113.941C1111.06 102.077 1107.85 93.0971 1101.42 87.0004C1095 80.7391 1087.01 77.6084 1077.45 77.6084C1067.89 77.6084 1059.9 80.7391 1053.47 87.0004C1047.05 93.0971 1043.84 102.077 1043.84 113.941V116.413C1043.84 128.276 1047.05 137.339 1053.47 143.6C1059.9 149.697 1067.89 152.745 1077.45 152.745Z" fill="url(#paint7_linear_70_153)"/>
<path d="M1176.52 179.933C1169.93 179.933 1164.33 177.791 1159.71 173.507C1155.26 169.058 1153.04 163.373 1153.04 156.453C1153.04 149.532 1155.26 143.93 1159.71 139.646C1164.33 135.197 1169.93 132.972 1176.52 132.972C1183.28 132.972 1188.88 135.197 1193.33 139.646C1197.78 143.93 1200 149.532 1200 156.453C1200 163.373 1197.78 169.058 1193.33 173.507C1188.88 177.791 1183.28 179.933 1176.52 179.933Z" fill="url(#paint8_linear_70_153)"/>
<defs>
<linearGradient id="paint0_linear_70_153" x1="600" y1="0" x2="600" y2="226" gradientUnits="userSpaceOnUse">
<stop stop-color="#081C15"/>
<stop offset="1" stop-color="#2D6A4F"/>
</linearGradient>
<linearGradient id="paint1_linear_70_153" x1="600" y1="0" x2="600" y2="226" gradientUnits="userSpaceOnUse">
<stop stop-color="#081C15"/>
<stop offset="1" stop-color="#2D6A4F"/>
</linearGradient>
<linearGradient id="paint2_linear_70_153" x1="600" y1="0" x2="600" y2="226" gradientUnits="userSpaceOnUse">
<stop stop-color="#081C15"/>
<stop offset="1" stop-color="#2D6A4F"/>
</linearGradient>
<linearGradient id="paint3_linear_70_153" x1="600" y1="0" x2="600" y2="226" gradientUnits="userSpaceOnUse">
<stop stop-color="#081C15"/>
<stop offset="1" stop-color="#2D6A4F"/>
</linearGradient>
<linearGradient id="paint4_linear_70_153" x1="600" y1="0" x2="600" y2="226" gradientUnits="userSpaceOnUse">
<stop stop-color="#081C15"/>
<stop offset="1" stop-color="#2D6A4F"/>
</linearGradient>
<linearGradient id="paint5_linear_70_153" x1="600" y1="0" x2="600" y2="226" gradientUnits="userSpaceOnUse">
<stop stop-color="#081C15"/>
<stop offset="1" stop-color="#2D6A4F"/>
</linearGradient>
<linearGradient id="paint6_linear_70_153" x1="600" y1="0" x2="600" y2="226" gradientUnits="userSpaceOnUse">
<stop stop-color="#081C15"/>
<stop offset="1" stop-color="#2D6A4F"/>
</linearGradient>
<linearGradient id="paint7_linear_70_153" x1="600" y1="0" x2="600" y2="226" gradientUnits="userSpaceOnUse">
<stop stop-color="#081C15"/>
<stop offset="1" stop-color="#2D6A4F"/>
</linearGradient>
<linearGradient id="paint8_linear_70_153" x1="600" y1="0" x2="600" y2="226" gradientUnits="userSpaceOnUse">
<stop stop-color="#081C15"/>
<stop offset="1" stop-color="#2D6A4F"/>
</linearGradient>
</defs>
</svg>
